<?xml version="1.0" encoding="UTF-8" ?>
<!DOCTYPE svg PUBLIC "-//W3C//DTD SVG 1.1//EN" "http://www.w3.org/Graphics/SVG/1.1/DTD/svg11.dtd">
<svg width="400pt" height="397pt" viewBox="0 0 400 397" version="1.1" xmlns="http://www.w3.org/2000/svg">
<path fill="#fefefe" d=" M 0.00 0.00 L 400.00 0.00 L 400.00 397.00 L 0.00 397.00 L 0.00 0.00 Z" />
<path fill="#010101" d=" M 181.42 26.76 C 209.07 23.77 237.46 26.67 263.69 36.08 C 294.71 46.79 322.48 66.34 343.55 91.43 C 363.78 115.44 377.61 144.78 383.31 175.64 C 389.57 209.09 386.45 244.28 374.12 276.02 C 364.68 300.45 350.05 322.97 331.11 341.10 C 292.89 379.42 236.79 398.69 183.07 392.60 C 150.00 389.25 118.02 376.47 91.53 356.43 C 65.69 336.80 45.16 310.26 32.71 280.29 C 18.47 246.15 14.96 207.65 22.66 171.47 C 32.54 123.50 62.62 80.11 104.18 54.16 C 127.34 39.19 154.08 30.07 181.42 26.76 Z" />
<path fill="#fefefe" d=" M 192.41 51.43 C 222.40 49.48 252.88 56.19 279.18 70.77 C 295.67 79.86 310.47 92.03 322.73 106.31 C 345.11 132.02 358.52 165.27 360.62 199.26 C 360.92 210.61 361.14 222.06 359.17 233.30 C 354.18 268.44 336.58 301.49 310.64 325.64 C 289.78 345.22 263.49 358.89 235.50 364.76 C 213.47 369.43 190.43 369.35 168.44 364.50 C 139.91 358.46 113.15 344.08 92.38 323.63 C 72.38 304.25 57.38 279.63 50.06 252.72 C 42.09 224.38 42.18 193.82 50.34 165.53 C 58.80 135.84 76.33 108.84 99.83 88.85 C 125.54 66.77 158.59 53.44 192.41 51.43 Z" />
<path fill="#010101" d=" M 150.55 133.78 C 154.84 132.81 159.57 133.24 163.40 135.51 C 168.66 138.58 172.49 143.73 174.61 149.38 C 179.18 161.31 178.28 175.50 171.25 186.30 C 167.79 191.46 162.44 195.94 156.02 196.38 C 148.54 197.10 141.80 192.03 138.00 185.97 C 131.01 174.61 130.40 159.76 135.66 147.60 C 138.52 141.32 143.68 135.57 150.55 133.78 Z" />
<path fill="#010101" d=" M 245.42 133.59 C 249.72 132.88 254.39 133.43 258.11 135.85 C 263.78 139.35 267.38 145.35 269.56 151.51 C 273.09 162.53 272.06 175.11 266.20 185.15 C 262.60 191.23 256.35 196.41 249.00 196.50 C 241.64 196.51 235.23 191.36 231.71 185.19 C 224.67 172.92 224.40 156.79 231.51 144.49 C 234.60 139.37 239.39 134.80 245.42 133.59 Z" />
<path fill="#010101" d=" M 280.71 193.76 C 281.91 198.06 282.48 202.89 285.71 206.25 C 288.33 209.36 292.08 211.90 293.04 216.10 C 294.51 223.62 287.79 231.52 280.03 230.87 C 271.78 231.23 264.95 221.83 268.22 214.14 C 269.69 210.54 273.15 208.42 275.65 205.61 C 278.77 202.44 279.45 197.84 280.71 193.76 Z" />
<path fill="#010101" d=" M 138.38 251.55 C 144.24 249.92 150.97 251.23 155.16 255.83 C 160.76 261.02 165.36 269.47 174.01 269.33 C 181.89 269.69 187.13 263.16 192.01 258.01 C 196.17 253.43 202.37 249.59 208.77 251.22 C 216.59 253.10 220.70 260.67 226.52 265.49 C 231.25 269.82 238.84 270.67 244.31 267.26 C 250.47 263.22 254.04 256.17 260.54 252.57 C 265.44 249.82 271.49 250.59 276.45 252.75 C 282.41 255.30 286.80 260.24 291.74 264.27 C 294.65 266.70 297.96 268.64 300.61 271.38 C 308.01 279.45 306.43 294.18 297.01 300.02 C 292.67 302.26 288.42 298.36 285.83 295.19 C 280.85 289.26 276.25 281.05 267.77 280.11 C 258.91 279.62 254.15 288.22 248.52 293.52 C 244.05 298.48 236.47 300.37 230.33 297.60 C 223.07 294.20 219.73 286.12 212.92 282.11 C 208.95 279.62 203.70 279.52 199.51 281.52 C 191.58 285.54 187.95 295.08 179.37 298.13 C 175.12 299.31 170.16 299.13 166.43 296.55 C 160.45 292.62 157.15 285.70 150.95 282.02 C 147.04 279.71 141.83 279.30 137.92 281.83 C 130.69 286.22 127.21 294.49 120.57 299.53 C 118.33 301.37 114.90 300.97 112.75 299.19 C 104.85 293.04 103.51 280.40 109.51 272.49 C 112.55 268.81 116.91 266.61 120.41 263.42 C 125.84 258.75 131.08 253.10 138.38 251.55 Z" />
</svg>
